# xmcd
#
# Track frame offsets:
#	150
#	13519
#	30486
#	41518
#	58050
#	73927
#	89437
#	101689
#	115708
#	131135
#
# Disc length: 1860 seconds
#
# Revision: 0
# Processed by: cddbd v1.5.2PL0 Copyright (c) Steve Scherf et al.
# Submitted via: EasyCDDAExtractor 16.0.6.1
#
DISCID=8507420a
DTITLE=Νά 'χαμε, τι νά 'χαμε-1972
DYEAR=2012
DGENRE=Έντεχνη λαϊκή
TTITLE0=Καλατζής Γιάννης-Αλεξίου Χάρις - Παποράκι του Μπουρνόβα [παλιό λ., Μ.Λ
TTITLE0=οΐζος-Λ.Παπαδόπουλος]
TTITLE1=Νταλάρας Γιώργος - Ήλιε μου σε παρακαλώ [Μ. Λοΐζος-Λ. Παπαδόπουλος]
TTITLE2=Νταλάρας Γιώργος-Δαλάκου Μαίρη - Πιάσε τον ζουρνά [Μ. Λοΐζος-Λ. Παπαδό
TTITLE2=πουλος]
TTITLE3=Άνευ ερμηνευτού - Το ζεϊμπέκικο της Ευδοκίας [ορχηστρ., Μ. Λοΐζος-Λ. Π
TTITLE3=απαδόπουλος]
TTITLE4=Νταλάρας Γιώργος-Δαλάκου Μαίρη - Ο Λιόντας [Μ. Λοΐζος-Λ. Παπαδόπουλος]
TTITLE5=Νταλάρας Γιώργος-Δαλάκου Μαίρη - Ελισσώ [Μ. Λοΐζος-Λ. Παπαδόπουλος]
TTITLE6=Καλατζής Γιάννης - Μιά πάπια, μιά χήνα [Μ. Λοΐζος-Λ. Παπαδόπουλος]
TTITLE7=Καλατζής Γιάννης-χορωδία - Ο Κουταλιανός (Τζίμης ο Τίγρης)[Μ. Λοΐζος-Λ
TTITLE7=Παπαδόπουλος]
TTITLE8=Νταλάρας Γιώργος - Πάνε να πεις [Μ. Λοΐζος-Λ. Παπαδόπουλος]
TTITLE9=Καλατζής Γιάννης-Παπαδόπουλος Λ.-φίλοι - Νά 'χαμε, τι νά 'χαμε [Μ. Λοΐ
TTITLE9=ζος-Λ. Παπαδόπουλος]
EXTD=
EXTT0=
EXTT1=
EXTT2=
EXTT3=
EXTT4=
EXTT5=
EXTT6=
EXTT7=
EXTT8=
EXTT9=
PLAYORDER=
